<?xml version="1.0" encoding="UTF-8" standalone="no"?>
<svg
   xmlns:dc="http://purl.org/dc/elements/1.1/"
   xmlns:cc="http://creativecommons.org/ns#"
   xmlns:rdf="http://www.w3.org/1999/02/22-rdf-syntax-ns#"
   xmlns:svg="http://www.w3.org/2000/svg"
   xmlns="http://www.w3.org/2000/svg"
   xmlns:sodipodi="http://sodipodi.sourceforge.net/DTD/sodipodi-0.dtd"
   xmlns:inkscape="http://www.inkscape.org/namespaces/inkscape"
   version="1.1"
   id="svg25"
   width="880"
   height="580"
   viewBox="0 0 880 580"
   sodipodi:docname="logoMobileECG.svg"
   inkscape:version="1.0 (4035a4fb49, 2020-05-01)">
  <metadata
     id="metadata31">
    <rdf:RDF>
      <cc:Work
         rdf:about="">
        <dc:format>image/svg+xml</dc:format>
        <dc:type
           rdf:resource="http://purl.org/dc/dcmitype/StillImage" />
        <dc:title />
      </cc:Work>
    </rdf:RDF>
  </metadata>
  <defs
     id="defs29" />
  <sodipodi:namedview
     inkscape:document-rotation="0"
     pagecolor="#ffffff"
     bordercolor="#666666"
     borderopacity="1"
     objecttolerance="10"
     gridtolerance="10"
     guidetolerance="10"
     inkscape:pageopacity="0"
     inkscape:pageshadow="2"
     inkscape:window-width="1920"
     inkscape:window-height="1001"
     id="namedview27"
     showgrid="false"
     inkscape:zoom="0.65517241"
     inkscape:cx="-573.90755"
     inkscape:cy="420.54521"
     inkscape:window-x="1699"
     inkscape:window-y="-9"
     inkscape:window-maximized="1"
     inkscape:current-layer="g33" />
  <g
     inkscape:groupmode="layer"
     inkscape:label="Image"
     id="g33">
    <g
       transform="translate(464.00001,83.947368)"
       id="g858">
      <path
         id="path62"
         d="m -406.54024,36.633486 c -0.94133,-0.407024 -0.96809,-0.500784 -1.57307,-5.512126 -0.0812,-0.673099 -0.21851,-1.80894 -0.30502,-2.524109 -0.0865,-0.715169 -0.22718,-1.816593 -0.31259,-2.447621 -0.0854,-0.631027 -0.42949,-3.419005 -0.76465,-6.195526 -0.33515,-2.776509 -0.67569,-5.530083 -0.75674,-6.119039 -0.0811,-0.588957 -0.18843,-1.449448 -0.23862,-1.912204 -0.0501,-0.462743 -0.15713,-1.323235 -0.23767,-1.912191 -0.16607,-1.2143442 -0.66258,-5.2182501 -0.98645,-7.9547541 -0.11956,-1.009641 -0.29137,-2.45526178 -0.38195,-3.212502 -0.0906,-0.7572276 -0.26456,-2.2716826 -0.38661,-3.3654651 -0.12203,-1.093784 -0.29175,-2.5738221 -0.37706,-3.2889904 -0.0853,-0.7151574 -0.25778,-2.1951944 -0.38322,-3.2889784 -1.17549,-10.249436 -1.16575,-10.172909 -1.29637,-10.172909 -0.0582,0 -0.18486,0.774448 -0.28147,1.720982 -0.0965,0.946547 -0.34916,3.218231 -0.56125,5.048205 -0.3675,3.170875 -0.89486,7.7417385 -1.37228,11.8938939 -0.12089,1.0516993 -0.2676,2.32523438 -0.32594,2.83004859 -0.13085,1.13234381 -0.25863,1.38975001 -0.87707,1.76684311 -0.45428,0.2769971 -0.80282,0.2972342 -5.12958,0.2977664 -5.41194,6.083e-4 -5.23724,0.043718 -5.97809,-1.47562807 -0.25877,-0.530741 -0.47049,-0.99581572 -0.47049,-1.03351496 0,-0.0376354 -0.23023,-0.57264727 -0.51163,-1.18878487 -0.28139,-0.6161376 -0.74016,-1.6217742 -1.01949,-2.2347692 -0.27933,-0.6129824 -0.5618,-1.0604307 -0.6277,-0.9943326 -0.0659,0.06602 -0.57795,1.1527578 -1.1379,2.4148123 -1.29672,2.92265548 -2.33686,5.2024988 -3.3762,7.4001645 -0.4526,0.9570268 -0.82292,1.7610013 -0.82292,1.7866113 0,0.025598 -0.4362,0.9646047 -0.96935,2.086659 -1.03901,2.1866666 -1.26063,2.4179176 -2.31721,2.4179176 -0.76898,0 -1.18171,-0.536735 -2.35273,-3.0595259 -0.56627,-1.2199834 -1.43839,-3.0958563 -1.93802,-4.1685911 l -0.90841,-1.9504478 h -2.87052 -2.87052 V 0.59279501 -1.0997902 l 3.74471,0.048026 3.74472,0.048026 0.37312,0.38244076 c 0.2052,0.21034234 0.97306,1.69039294 1.70636,3.28899004 0.73329,1.5985972 1.38123,2.9602787 1.43989,3.0259704 0.10244,0.1146813 2.15592,-4.1968878 4.13701,-8.6860803 0.51981,-1.1779123 1.06932,-2.4170304 1.22115,-2.7535733 0.1518,-0.3365429 0.62919,-1.4035502 1.06082,-2.3711193 0.9013,-2.0203851 1.28037,-2.4476221 2.17174,-2.4476221 1.18711,0 1.05726,-0.193906 3.41434,5.0986022 0.86823,1.9494976 1.66673,3.7338535 1.77447,3.9652186 l 0.19587,0.4206848 h 3.03497 c 2.32516,0 3.03532,-0.044733 3.03649,-0.1912203 7.5e-4,-0.1051773 0.0999,-1.0516993 0.21993,-2.1034113 0.12016,-1.0517125 0.39482,-3.4610889 0.61039,-5.3541567 0.21558,-1.8930823 0.46162,-4.0270973 0.5467,-4.7422663 0.14279,-1.199911 0.24916,-2.123572 0.83681,-7.26636 0.11533,-1.009641 0.31762,-2.765042 0.44947,-3.900883 0.68142,-5.871149 0.87953,-7.601434 1.09469,-9.561005 0.12933,-1.177913 0.30176,-2.39611 0.38316,-2.707119 0.18336,-0.700443 0.78437,-1.193764 1.45438,-1.193764 1.13697,0 1.64049,0.575283 1.80756,2.065179 0.0566,0.504815 0.20427,1.778338 0.32813,2.83005 0.12381,1.051711 0.32732,2.807112 0.45208,3.900895 0.12482,1.093771 0.39941,3.485938 0.6103,5.315913 0.21089,1.829975 0.55596,4.824481 0.76686,6.654456 0.21088,1.829975 0.48607,4.22213 0.61151,5.315913 0.12546,1.093784 0.29727,2.5738219 0.38185,3.2889913 0.0845,0.7151562 0.25609,2.1951943 0.38116,3.2889771 0.41896,3.6639035 0.54329,4.7255883 0.92261,7.8782658 0.48004,3.9897894 0.66488,5.4723617 0.84871,6.8074322 0.0811,0.5889561 0.35205,2.7918046 0.6021,4.8952286 0.25004,2.103423 0.52425,4.340689 0.60933,4.971716 0.0851,0.631028 0.22911,1.73235 0.32007,2.447368 0.091,0.715029 0.18791,1.32255 0.21542,1.350073 0.12292,0.122918 0.0835,0.3518 2.59529,-15.0411723 0.54917,-3.3654656 1.06551,-6.4976526 1.14739,-6.9604084 0.0818,-0.46275571 0.25746,-1.56417991 0.39015,-2.4476204 0.47072,-3.1339867 1.09075,-7.1982235 1.30109,-8.5284039 0.22959,-1.451995 0.42033,-2.698613 0.69633,-4.551044 0.44757,-3.004035 0.67045,-4.211587 0.83359,-4.516437 0.19006,-0.355133 0.9235,-0.761233 1.37483,-0.761233 0.47037,0 1.1877,0.4116 1.39618,0.801111 0.19628,0.366767 0.2404,0.534201 0.83708,3.176274 0.21852,0.96757 0.55295,2.447607 0.74317,3.288977 0.19025,0.84137 0.67164,2.9753844 1.06976,4.7422529 0.39811,1.7668806 0.7716,3.2630501 0.82995,3.3248517 0.0585,0.061838 0.62003,-0.9289961 1.24816,-2.2017336 1.19008,-2.411365 1.58834,-2.8811924 2.44236,-2.8811924 0.99545,0 1.10956,0.1814507 4.89135,7.7775236 1.97509,3.9671445 3.6308,7.2129739 3.67937,7.2129739 0.0486,0 0.74924,-1.3313448 1.55706,-2.958568 1.3127,-2.6442139 1.52561,-2.98554665 2.00386,-3.21248939 0.48949,-0.23227761 2.12653,-0.25393411 19.19673,-0.25393411 h 18.66161 l 0.0922,-0.3677031 c 0.0509,-0.202245 0.36728,-0.7156127 0.70338,-1.1408088 0.86694,-1.0967609 2.4534,-1.8569535 3.87533,-1.8569535 2.00552,0 3.77464,1.0977111 4.65359,2.8874906 0.36079,0.73465877 0.42255,1.05047015 0.42255,2.16071398 0,1.11118162 -0.0616,1.42581452 -0.42381,2.16331172 -0.47199,0.9610946 -1.42227,1.9187045 -2.42929,2.4480136 -0.95374,0.5012912 -3.23961,0.5138365 -4.30127,0.02357 -0.88169,-0.4071383 -2.16154,-1.6813705 -2.42748,-2.4168151 l -0.19359,-0.5353662 -18.05868,0.00253 -18.05868,0.00253 -1.90724,3.9110077 c -1.04899,2.1510579 -2.06939,4.0731585 -2.26754,4.2713235 -0.51096,0.51096 -1.10138,0.601438 -1.78803,0.273981 -0.55083,-0.262665 -0.72095,-0.571013 -4.18193,-7.5798538 -1.98427,-4.01831392 -3.64725,-7.3060369 -3.69555,-7.3060369 -0.0483,0 -0.73815,1.3182166 -1.53305,2.9293844 -1.13162,2.2936557 -1.54581,2.990704 -1.90857,3.2119189 -0.56304,0.3433604 -1.02251,0.3583513 -1.61369,0.052589 -0.57548,-0.2975891 -0.71676,-0.5787298 -1.05815,-2.10588217 -1.70213,-7.61400393 -1.99781,-8.83031253 -2.14653,-8.83031253 -0.0597,0 -0.18676,0.6023369 -0.28241,1.3385295 -0.0957,0.7362047 -0.27828,1.9925192 -0.40577,2.7918174 -0.12751,0.7992984 -0.37267,2.4170176 -0.54483,3.5949299 -0.17215,1.17792502 -0.37961,2.4858645 -0.46102,2.9065493 -0.0814,0.4206848 -0.4233,2.4858648 -0.75979,4.5892761 -0.3365,2.1034239 -0.68094,4.2030199 -0.76542,4.6657759 -0.0845,0.462743 -0.53014,3.181899 -0.99033,6.042551 -0.4602,2.860651 -0.90236,5.545378 -0.98259,5.966061 -0.0803,0.420685 -0.53706,3.208663 -1.01522,6.195528 -1.03726,6.479595 -1.15029,6.956417 -1.71757,7.244957 -0.71012,0.361204 -1.01147,0.396888 -1.51453,0.179373 z"
         style="mix-blend-mode:darken;fill:#fe6285;fill-opacity:0.8;fill-rule:evenodd;stroke-width:0.152976" />
      <path
         style="fill:#e9e7ed"
         id="path43"
         d="m -389.21052,78.473685 -69.292,-39.999 v -80.001 l 69.292,-40 69.292,40 v 80 z m -61.151,-44.699 61.151,35.301 61.151,-35.301 v -70.601 l -61.151,-35.301 -61.151,35.301 z"
         fill="#e7e9ed" />
    </g>
  </g>
</svg>
